<?xml version="1.0" standalone="no"?>
<!DOCTYPE svg PUBLIC "-//W3C//DTD SVG 20010904//EN"
 "http://www.w3.org/TR/2001/REC-SVG-20010904/DTD/svg10.dtd">
<svg version="1.0" xmlns="http://www.w3.org/2000/svg"
 width="900.000000pt" height="900.000000pt" viewBox="0 0 900.000000 900.000000"
 preserveAspectRatio="xMidYMid meet">

<g transform="translate(0.000000,900.000000) scale(0.100000,-0.100000)"
fill="#e2e2e2" stroke="none">
<path d="M0 4500 l0 -4500 4500 0 4500 0 0 4500 0 4500 -4500 0 -4500 0 0
-4500z m2318 2827 c64 -51 162 -126 217 -168 114 -86 244 -186 564 -432 124
-95 266 -203 315 -241 156 -118 226 -176 226 -188 0 -6 -22 -40 -48 -77 -43
-58 -122 -178 -234 -351 -101 -158 -324 -571 -387 -720 -13 -30 -41 -92 -62
-138 -22 -45 -39 -86 -39 -91 0 -5 -12 -35 -26 -67 -15 -33 -30 -70 -34 -84
-5 -14 -18 -50 -30 -80 -22 -59 -79 -231 -106 -320 -9 -30 -21 -68 -26 -85 -6
-16 -14 -46 -18 -65 -4 -19 -19 -80 -33 -135 -23 -95 -36 -153 -72 -324 -17
-83 -19 -137 -6 -145 5 -3 33 -1 62 5 182 38 349 70 369 72 19 2 18 -52 -4
-178 -20 -120 -42 -262 -61 -415 -24 -184 -25 -190 -34 -190 -5 0 -48 31 -97
69 -198 153 -408 277 -624 369 l-95 40 -67 199 c-120 351 -218 644 -218 653 0
4 46 72 103 151 101 141 375 525 430 604 86 122 81 110 79 198 -1 45 -9 147
-17 227 -7 80 -21 228 -30 330 -9 102 -22 257 -30 345 -8 88 -21 241 -30 340
-9 99 -22 252 -30 340 -43 473 -55 627 -49 637 10 16 26 6 142 -85z m4497 21
c-3 -40 -12 -147 -21 -238 -18 -204 -39 -439 -59 -675 -52 -601 -73 -829 -90
-1025 -25 -267 -25 -276 -6 -312 9 -18 129 -190 267 -383 137 -192 269 -378
293 -412 l44 -63 -67 -202 c-37 -112 -70 -210 -73 -218 -4 -8 -38 -109 -77
-223 l-71 -209 -50 -20 c-103 -42 -301 -140 -384 -190 -216 -130 -340 -227
-521 -408 -261 -260 -450 -542 -633 -940 -66 -144 -87 -192 -87 -197 0 -3 -6
-19 -14 -36 -38 -84 -56 -127 -56 -133 0 -4 -7 -16 -17 -26 -15 -17 -50 -18
-698 -18 -637 0 -683 1 -697 18 -24 27 -178 392 -178 421 0 14 7 70 16 126 14
86 27 159 75 394 5 25 13 59 19 75 5 17 17 58 26 91 67 245 166 517 290 795
34 76 183 377 216 435 237 421 464 749 739 1065 130 150 144 168 136 176 -5 6
-231 -35 -502 -91 -38 -8 -94 -17 -122 -20 -60 -8 -65 0 -39 58 8 18 26 60 41
95 156 379 373 743 584 982 36 41 80 90 96 109 54 61 271 257 411 371 76 62
369 285 650 496 282 211 515 388 519 394 3 5 15 10 26 10 18 0 19 -5 14 -72z
m-3237 -3024 c293 -146 534 -269 537 -274 11 -19 -29 -29 -180 -45 -537 -59
-671 12 -863 459 -46 105 -51 126 -32 126 4 0 246 -120 538 -266z"/>
<path d="M5894 4574 c-16 -9 -253 -128 -526 -265 -273 -137 -500 -253 -503
-259 -11 -18 35 -30 182 -46 526 -57 661 15 854 458 52 121 51 142 -7 112z"/>
<path d="M4080 2525 c-11 -13 -9 -19 7 -38 11 -12 33 -42 49 -67 30 -44 132
-194 247 -360 32 -47 68 -100 79 -117 11 -18 26 -33 33 -33 7 0 22 15 33 33
11 17 47 70 79 117 32 47 108 157 167 245 60 88 117 169 128 181 22 25 23 40
2 48 -9 3 -195 6 -414 6 -345 0 -399 -2 -410 -15z"/>
</g>
</svg>
